<svg id="eMrfctkQ4jq1" xmlns="http://www.w3.org/2000/svg" xmlns:xlink="http://www.w3.org/1999/xlink" viewBox="0 0 300 300" shape-rendering="geometricPrecision" text-rendering="geometricPrecision"><defs><linearGradient id="eMrfctkQ4jq2-fill" x1="0.946202" y1="1" x2="0.174077" y2="0" spreadMethod="pad" gradientUnits="objectBoundingBox" gradientTransform="translate(0 0)"><stop id="eMrfctkQ4jq2-fill-0" offset="0%" stop-color="#093b8e"/><stop id="eMrfctkQ4jq2-fill-1" offset="100%" stop-color="#71f6b8"/></linearGradient><linearGradient id="eMrfctkQ4jq3-fill" x1="-0.05" y1="-0.9" x2="1.1" y2="1.3" spreadMethod="pad" gradientUnits="objectBoundingBox" gradientTransform="translate(0 0)"><stop id="eMrfctkQ4jq3-fill-0" offset="0%" stop-color="#093b8e"/><stop id="eMrfctkQ4jq3-fill-1" offset="100%" stop-color="#71f6de"/></linearGradient><linearGradient id="eMrfctkQ4jq4-fill" x1="-0.1" y1="-0.375" x2="1.066192" y2="2.5" spreadMethod="pad" gradientUnits="objectBoundingBox" gradientTransform="translate(0 0)"><stop id="eMrfctkQ4jq4-fill-0" offset="0%" stop-color="#093b8e"/><stop id="eMrfctkQ4jq4-fill-1" offset="100%" stop-color="#71f6b8"/></linearGradient></defs><path d="M-103.988209,-0.656077C-105.300364,-80.697475,-83.649821,-104.768424,0,-104.378317s104.644287,19.088303,104.378317,104.378317-16.792033,103.332132-104.378317,104.378317-102.676055-19.74438-103.988209-105.034394Z" transform="matrix(1.180665 0 0 1.180665 150 149.982706)" fill="url(#eMrfctkQ4jq2-fill)" stroke-width="0"/><path d="M140,230L250,130l-99.798762,19.208098L50,130l90,100Z" transform="translate(0 10)" fill="url(#eMrfctkQ4jq3-fill)" stroke="#fff" stroke-width="0.6"/><path d="M160,149.982705L260,130L160,60L60,130l100,19.982705Z" transform="translate(-10 0.000002)" fill="url(#eMrfctkQ4jq4-fill)" stroke="#fff" stroke-width="0.6"/></svg>