<?xml version="1.0" encoding="UTF-8" standalone="no"?>
<!-- Created with Inkscape (http://www.inkscape.org/) -->

<svg
   version="1.1"
   id="svg2"
   xml:space="preserve"
   width="377.95334"
   height="377.95334"
   viewBox="0 0 377.95334 377.95334"
   sodipodi:docname="SET OF 12 VIOLA.ai"
   xmlns:inkscape="http://www.inkscape.org/namespaces/inkscape"
   xmlns:sodipodi="http://sodipodi.sourceforge.net/DTD/sodipodi-0.dtd"
   xmlns="http://www.w3.org/2000/svg"
   xmlns:svg="http://www.w3.org/2000/svg"><defs
     id="defs6"><clipPath
       clipPathUnits="userSpaceOnUse"
       id="clipPath18"><path
         d="M 0,283.465 H 283.465 V 0 H 0 Z"
         id="path16" /></clipPath></defs><sodipodi:namedview
     id="namedview4"
     pagecolor="#ffffff"
     bordercolor="#666666"
     borderopacity="1.0"
     inkscape:pageshadow="2"
     inkscape:pageopacity="0.0"
     inkscape:pagecheckerboard="0" /><g
     id="g8"
     inkscape:groupmode="layer"
     inkscape:label="SET OF 12 VIOLA"
     transform="matrix(1.3333333,0,0,-1.3333333,0,377.95333)"><path
       d="M 0.02,0 H 282.674 V 283.28 H 0.02 Z"
       style="fill:#d7d2e9;fill-opacity:1;fill-rule:nonzero;stroke:none"
       id="path10" /><g
       id="g12"><g
         id="g14"
         clip-path="url(#clipPath18)"><g
           id="g20"
           transform="translate(230.2031,112.0993)"><path
             d="m 0,0 h -194.052 c -0.038,0 -0.068,0.031 -0.068,0.068 0,0.038 0.03,0.069 0.068,0.069 H 0 C 0.038,0.137 0.068,0.106 0.068,0.068 0.068,0.031 0.038,0 0,0"
             style="fill:#171717;fill-opacity:1;fill-rule:nonzero;stroke:none"
             id="path22" /></g><g
           id="g24"
           transform="translate(170.7607,125.177)"><path
             d="m 0,0 c 2.641,-24.884 6.766,-43.259 11.266,-69.134 1.737,-9.993 13.753,-10.071 12.585,0.123 C 21.216,-46.007 17.641,-26.009 15.945,0 15.285,10.121 -1.167,10.194 0,0"
             style="fill:#e8716a;fill-opacity:1;fill-rule:nonzero;stroke:none"
             id="path26" /></g><g
           id="g28"
           transform="translate(140.164,186.028)"><path
             d="m 0,0 c 0.522,-2.716 1.938,-5.473 3.134,-7.935 1.617,-3.332 3.751,-6.892 7.061,-8.773 5.644,-3.208 10.724,5.49 5.083,8.695 -0.464,0.29 -0.497,0.287 -0.096,-0.008 -0.257,0.229 -0.5,0.473 -0.729,0.73 -0.433,0.549 -0.218,0.243 -0.61,0.828 -0.885,1.319 -1.614,2.748 -2.286,4.184 C 10.875,-0.823 10.073,0.794 9.711,2.677 9.198,5.35 5.99,6.874 3.518,6.194 0.722,5.426 -0.515,2.68 0,0"
             style="fill:#e8716a;fill-opacity:1;fill-rule:nonzero;stroke:none"
             id="path30" /></g><g
           id="g32"
           transform="translate(154.2812,208.4416)"><path
             d="m 0,0 c -3.044,-3.672 -6.088,-7.345 -9.133,-11.017 -2.512,-3.031 -5.359,-5.848 -5.164,-10.058 0.3,-6.453 10.372,-6.489 10.071,0 -0.065,1.406 3.811,4.863 4.824,6.084 2.174,2.624 4.349,5.247 6.524,7.87 C 11.229,-2.167 4.143,4.996 0,0"
             style="fill:#e8716a;fill-opacity:1;fill-rule:nonzero;stroke:none"
             id="path34" /></g><g
           id="g36"
           transform="translate(154.08,190.698)"><path
             d="m 0,0 -9.192,9.192 8.253,8.253 c 2.538,2.538 6.654,2.538 9.192,0 2.538,-2.538 2.538,-6.654 0,-9.192 z"
             style="fill:#2b2c2b;fill-opacity:1;fill-rule:nonzero;stroke:none"
             id="path38" /></g><g
           id="g40"
           transform="translate(163.9414,126.9626)"><path
             d="m 0,0 c -2.933,-25.312 -1.493,-48.349 0.717,-73.619 0.894,-10.22 -8.381,-12.517 -9.938,-2.438 -3.937,25.5 -9.657,50.744 -6.724,76.057 C -14.777,10.073 1.181,10.191 0,0"
             style="fill:#e8716a;fill-opacity:1;fill-rule:nonzero;stroke:none"
             id="path42" /></g><g
           id="g44"
           transform="translate(189.9707,125.906)"><path
             d="m 0,0 c -1.686,12.434 -4.639,27.727 -6.562,40.125 -1.199,7.723 -10.524,9.433 -15.497,6.122 -3.515,5.391 -15.183,4.119 -16.566,-4.059 -2.25,-13.313 -4.473,-26.518 -6,-39.188 5.178,-1.052 15.028,-3.129 20.25,-3.937 0.771,6.397 1.174,13.276 1.561,20.179 0.918,-7.261 1.902,-14.523 2.752,-20.929 C -14.789,-1.699 -5.215,-0.88 0,0"
             style="fill:#1b45bc;fill-opacity:1;fill-rule:nonzero;stroke:none"
             id="path46" /></g><g
           id="g48"
           transform="translate(180.9707,208.781)"><path
             d="m 0,0 -14.82,2.849 -2.055,0.026 -7.25,-2.813 c -2.687,-0.984 -8.688,-42.25 -8.688,-42.25 l 36.296,-0.25 z"
             style="fill:#2b2c2b;fill-opacity:1;fill-rule:nonzero;stroke:none"
             id="path50" /></g><g
           id="g52"
           transform="translate(139.0527,51.8235)"><path
             d="m 0,0 h 24.478 c 1.876,0 3.397,-1.521 3.397,-3.398 v -0.875 c 0,-1.877 -1.521,-3.398 -3.397,-3.398 L 0,-7.671 c -1.877,0 -3.397,1.521 -3.397,3.398 v 0.875 C -3.397,-1.521 -1.877,0 0,0"
             style="fill:#fffbe6;fill-opacity:1;fill-rule:nonzero;stroke:none"
             id="path54" /></g><g
           id="g56"
           transform="translate(171.0742,53.093)"><path
             d="m 0,0 22.312,2.658 c 1.863,0.222 3.553,-1.109 3.775,-2.972 l 0.068,-0.572 c 0.222,-1.863 -1.108,-3.553 -2.971,-3.776 L 0.871,-7.319 c -1.863,-0.223 -3.554,1.108 -3.775,2.972 l -0.069,0.571 C -3.194,-1.913 -1.864,-0.222 0,0"
             style="fill:#fffbe6;fill-opacity:1;fill-rule:nonzero;stroke:none"
             id="path58" /></g><g
           id="g60"
           transform="translate(162.2177,113.404)"><path
             d="M 0,0 C -1.784,0.566 -3.473,1.386 -5.021,2.438 -5.051,2.457 -5.093,2.451 -5.115,2.419 -5.137,2.388 -5.128,2.346 -5.097,2.324 -3.576,1.291 -1.918,0.479 -0.168,-0.09 l -3.968,-2.939 -0.017,-0.013 c 0.022,-0.04 0.041,-0.083 0.063,-0.123 l 4.111,3.044 c 0.02,0.016 0.03,0.041 0.026,0.067 C 0.043,-0.029 0.024,-0.008 0,0"
             style="fill:#171717;fill-opacity:1;fill-rule:nonzero;stroke:none"
             id="path62" /></g><g
           id="g64"
           transform="translate(183.8398,111.9748)"><path
             d="M 0,0 C -0.012,0 -0.023,0.003 -0.034,0.009 -0.067,0.028 -0.078,0.07 -0.06,0.103 0.65,1.321 1.36,2.538 2.071,3.756 l -4.568,0.266 c -0.038,0.003 -0.066,0.035 -0.065,0.073 0.002,0.036 0.033,0.064 0.069,0.064 h 0.004 L 2.19,3.886 C 2.214,3.885 2.235,3.871 2.247,3.85 2.258,3.829 2.258,3.804 2.246,3.783 1.517,2.533 0.788,1.284 0.06,0.034 0.047,0.012 0.023,0 0,0"
             style="fill:#171717;fill-opacity:1;fill-rule:nonzero;stroke:none"
             id="path66" /></g><g
           id="g68"
           transform="translate(160.333,177.1159)"><path
             d="m 0,0 c -0.003,0 -0.006,0 -0.009,0 -3.258,0.442 -6.108,2.845 -7.093,5.981 -0.01,0.036 0.009,0.075 0.045,0.086 0.036,0.01 0.075,-0.009 0.086,-0.045 C -6.002,2.936 -3.197,0.57 0.009,0.136 0.047,0.131 0.073,0.097 0.067,0.059 0.063,0.025 0.034,0 0,0"
             style="fill:#171717;fill-opacity:1;fill-rule:nonzero;stroke:none"
             id="path70" /></g><g
           id="g72"
           transform="translate(156.5957,176.635)"><path
             d="m 0,0 h -0.003 c -1.08,0.04 -2.131,0.372 -3.038,0.958 -0.032,0.02 -0.041,0.063 -0.021,0.094 0.022,0.033 0.063,0.041 0.095,0.021 C -2.08,0.5 -1.053,0.176 0.003,0.137 0.04,0.135 0.069,0.104 0.068,0.066 0.067,0.029 0.037,0 0,0"
             style="fill:#171717;fill-opacity:1;fill-rule:nonzero;stroke:none"
             id="path74" /></g><g
           id="g76"
           transform="translate(160.5976,226.7751)"><path
             d="M 0,0 C 0.214,0.063 0.427,0.127 0.64,0.19 0.68,0.202 0.727,0.212 0.757,0.185 0.78,0.165 0.785,0.131 0.787,0.1 0.81,-0.187 0.857,-1.521 0.47,-1.566 -0.09,-1.631 -0.039,-0.27 0,0"
             style="fill:#3c53a4;fill-opacity:1;fill-rule:nonzero;stroke:none"
             id="path78" /></g><g
           id="g80"
           transform="translate(170.833,224.5368)"><path
             d="M 0,0 C -0.496,2.922 -3.267,4.888 -6.188,4.392 -7.91,4.099 -9.294,3.014 -10.044,1.576 c -0.07,-0.082 -0.128,-0.183 -0.164,-0.31 -0.016,-0.057 -0.039,-0.11 -0.056,-0.166 -0.08,-0.199 -0.148,-0.401 -0.204,-0.609 -0.172,-0.478 -0.361,-0.947 -0.587,-1.399 -0.759,-1.012 -1.189,-2.283 -1.133,-3.647 0.13,-3.138 2.779,-5.577 5.917,-5.447 l 0.018,0.001 c 0.036,10e-4 0.071,0.007 0.107,0.009 l 0.535,-4.8 c 0.07,-0.636 0.643,-1.094 1.279,-1.023 l 0.297,0.033 c 0.636,0.071 1.094,0.644 1.023,1.28 l -0.589,5.283 c 1.747,1.032 2.886,2.966 2.796,5.135 -0.003,0.074 -0.014,0.146 -0.02,0.219 C -0.095,-2.767 0.238,-1.402 0,0"
             style="fill:#e8716a;fill-opacity:1;fill-rule:nonzero;stroke:none"
             id="path82" /></g><g
           id="g84"
           transform="translate(162.5224,223.5544)"><path
             d="M 0,0 C 0.02,-0.177 0.179,-0.304 0.355,-0.284 0.532,-0.265 0.659,-0.105 0.64,0.071 0.62,0.248 0.461,0.375 0.284,0.356 0.107,0.336 -0.02,0.177 0,0"
             style="fill:#171717;fill-opacity:1;fill-rule:nonzero;stroke:none"
             id="path86" /></g><g
           id="g88"
           transform="translate(160.3886,223.55)"><path
             d="M 0,0 C 0.047,-0.171 0.224,-0.273 0.395,-0.226 0.566,-0.18 0.668,-0.003 0.621,0.169 0.574,0.34 0.397,0.442 0.227,0.395 0.055,0.349 -0.047,0.172 0,0"
             style="fill:#171717;fill-opacity:1;fill-rule:nonzero;stroke:none"
             id="path90" /></g><g
           id="g92"
           transform="translate(161.2988,221.6208)"><path
             d="M 0,0 C 0.546,-0.075 1.003,0.049 1.417,0.42 1.745,0.714 1.26,1.197 0.933,0.904 0.719,0.713 0.47,0.621 0.182,0.66 -0.249,0.719 -0.436,0.059 0,0"
             style="fill:#171717;fill-opacity:1;fill-rule:nonzero;stroke:none"
             id="path94" /></g><g
           id="g96"
           transform="translate(164.0976,222.1203)"><path
             d="M 0,0 C 0.037,-0.335 0.339,-0.576 0.674,-0.539 1.009,-0.501 1.25,-0.2 1.213,0.135 1.176,0.47 0.874,0.711 0.539,0.674 0.204,0.637 -0.037,0.335 0,0"
             style="fill:#ffffff;fill-opacity:1;fill-rule:nonzero;stroke:none"
             id="path98" /></g><g
           id="g100"
           transform="translate(164.6679,214.5295)"><path
             d="M 0,0 2.863,-2.009 2.587,0.802 Z"
             style="fill:#171717;fill-opacity:1;fill-rule:nonzero;stroke:none"
             id="path102" /></g><g
           id="g104"
           transform="translate(165.1201,224.6267)"><path
             d="M 0,0 -0.306,1.796 -0.72,0.429 Z"
             style="fill:#e8716a;fill-opacity:1;fill-rule:nonzero;stroke:none"
             id="path106" /></g><g
           id="g108"
           transform="translate(163.9843,225.761)"><path
             d="m 0,0 c 0.477,0.032 2.423,0.082 2.792,-0.224 0.606,-0.502 1.362,-0.401 1.124,-1.152 -0.429,-1.353 -0.468,-2.953 0.407,-4.069 0.315,0.517 0.645,1.051 1.153,1.381 0.506,0.329 -0.37,-3.198 0.064,-3.62 1.975,0.346 3.618,5.235 3.495,6.175 C 8.824,0.103 8.463,0.696 7.862,1.622 7.262,2.547 6.325,3.21 5.333,3.693 4.934,3.887 4.517,4.057 4.079,4.131 3.615,4.21 3.142,4.179 2.672,4.148 1.517,4.073 0.351,3.995 -0.765,3.68 -1.92,3.354 -5.617,1.667 -3.037,0.586 -1.647,0.004 -2.092,-0.138 0,0"
             style="fill:#3c53a4;fill-opacity:1;fill-rule:nonzero;stroke:none"
             id="path110" /></g><g
           id="g112"
           transform="translate(167.9531,220.8029)"><path
             d="M 0,0 C 0.149,-0.875 0.979,-1.464 1.854,-1.315 2.729,-1.167 3.318,-0.336 3.17,0.539 3.021,1.414 2.19,2.002 1.315,1.854 0.44,1.705 -0.148,0.875 0,0"
             style="fill:#e8716a;fill-opacity:1;fill-rule:nonzero;stroke:none"
             id="path114" /></g><g
           id="g116"
           transform="translate(169.6435,220.8449)"><path
             d="M 0,0 C 0.064,0.231 0.174,0.37 0.382,0.488 0.765,0.707 0.42,1.298 0.036,1.079 -0.32,0.876 -0.551,0.578 -0.659,0.182 -0.777,-0.243 -0.117,-0.425 0,0"
             style="fill:#171717;fill-opacity:1;fill-rule:nonzero;stroke:none"
             id="path118" /></g><g
           id="g120"
           transform="translate(168.5117,220.6667)"><path
             d="m 0,0 c 0.002,-0.062 0.001,-0.134 -0.048,-0.173 -0.042,-0.035 -0.103,-0.029 -0.154,-0.009 -0.164,0.063 -0.257,0.234 -0.323,0.397 -0.259,0.637 -0.311,1.356 -0.147,2.024 0.031,0.128 0.073,0.259 0.163,0.355 0.082,0.09 0.198,0.141 0.312,0.187 C 0.025,2.87 0.754,3.224 0.975,3.062 1.206,2.892 0.955,2.481 0.846,2.318 0.357,1.587 -0.028,0.917 0,0"
             style="fill:#3c53a4;fill-opacity:1;fill-rule:nonzero;stroke:none"
             id="path122" /></g><g
           id="g124"
           transform="translate(181.6601,191.5276)"><path
             d="M 0,0 C -0.017,0 -0.033,0.006 -0.047,0.018 -2.231,2.041 -4.31,4.219 -6.231,6.5 -6.26,6.493 -6.288,6.501 -6.307,6.525 -6.439,6.703 -6.572,6.88 -6.706,7.057 l -0.109,0.146 c -0.023,0.029 -0.017,0.071 0.012,0.094 0.03,0.024 0.071,0.019 0.095,-0.01 C -4.629,4.755 -2.356,2.343 0.047,0.119 0.074,0.093 0.076,0.05 0.05,0.022 0.037,0.007 0.019,0 0,0"
             style="fill:#171717;fill-opacity:1;fill-rule:nonzero;stroke:none"
             id="path126" /></g><g
           id="g128"
           transform="translate(152.7832,193.4001)"><path
             d="m 0,0 c -0.003,0 -0.007,0 -0.01,0 -0.037,0.006 -0.063,0.041 -0.057,0.078 0.359,2.471 0.792,4.193 1.339,6.373 0.271,1.075 0.577,2.294 0.912,3.757 0.007,0.037 0.038,0.058 0.082,0.052 0.036,-0.009 0.059,-0.045 0.05,-0.082 C 1.981,8.713 1.676,7.494 1.405,6.417 0.858,4.241 0.427,2.522 0.067,0.059 0.062,0.024 0.033,0 0,0"
             style="fill:#171717;fill-opacity:1;fill-rule:nonzero;stroke:none"
             id="path130" /></g><g
           id="g132"
           transform="translate(179.7236,192.76)"><path
             d="m 0,0 c 2.15,-2.55 5.672,-6.072 6.838,-9.27 0.169,1.294 0.339,2.587 0.508,3.88 -1.534,-2.548 -4.134,-4.756 -6.066,-7.03 -2.051,-2.414 -4.098,-4.822 -6.288,-7.112 -4.48,-4.684 2.63,-11.816 7.121,-7.121 2.577,2.695 4.957,5.558 7.375,8.395 2.019,2.368 5.201,4.948 6.554,7.786 C 18.805,-4.675 10.489,3.127 7.121,7.121 2.938,12.082 -4.155,4.927 0,0"
             style="fill:#e8716a;fill-opacity:1;fill-rule:nonzero;stroke:none"
             id="path134" /></g><g
           id="g136"
           transform="translate(180.7168,171.3274)"><path
             d="M 0,0 C -0.019,0 -0.038,0.008 -0.051,0.023 -1.004,1.094 -2.112,2.01 -3.344,2.746 -3.376,2.765 -3.387,2.807 -3.367,2.84 -3.349,2.872 -3.307,2.884 -3.273,2.863 -2.03,2.121 -0.911,1.195 0.051,0.114 0.076,0.085 0.074,0.042 0.046,0.017 0.032,0.006 0.017,0 0,0"
             style="fill:#171717;fill-opacity:1;fill-rule:nonzero;stroke:none"
             id="path138" /></g><g
           id="g140"
           transform="translate(191.7988,185.8401)"><path
             d="m 0,0 c -0.002,-0.011 -0.007,-0.022 -0.014,-0.032 0.013,0.007 0.025,0.017 0.032,0.031 C 0.017,-0.002 0.01,0 0,0 m -0.081,-0.181 c -0.062,0 -0.132,0.014 -0.21,0.042 l -2.742,1.003 c -0.028,0.01 -0.045,0.036 -0.045,0.065 0,0.029 0.018,0.055 0.046,0.064 0.999,0.34 1.924,0.843 2.751,1.496 0.029,0.022 0.072,0.018 0.095,-0.011 C -0.162,2.448 -0.167,2.405 -0.197,2.381 -0.985,1.758 -1.862,1.27 -2.807,0.927 l 2.563,-0.937 c 0.018,-0.007 0.076,-0.027 0.134,-0.032 -0.004,0.002 -0.008,0.006 -0.011,0.01 -0.044,0.058 -0.027,0.11 -0.001,0.137 0.052,0.052 0.16,0.04 0.223,-0.006 0.054,-0.041 0.07,-0.106 0.038,-0.165 -0.041,-0.077 -0.118,-0.115 -0.22,-0.115"
             style="fill:#171717;fill-opacity:1;fill-rule:nonzero;stroke:none"
             id="path142" /></g><g
           id="g144"
           transform="translate(191.6181,198.4402)"><path
             d="m 0,0 -10.132,-8.146 -7.313,9.095 c -2.249,2.798 -1.805,6.889 0.993,9.139 2.797,2.249 6.889,1.805 9.139,-0.992 z"
             style="fill:#2b2c2b;fill-opacity:1;fill-rule:nonzero;stroke:none"
             id="path146" /></g><g
           id="g148"
           transform="translate(106.583,77.5442)"><path
             d="m 0,0 c -0.053,-0.099 -0.109,-0.205 -0.168,-0.314 0.05,0.109 0.098,0.218 0.147,0.327 z m 6.684,20.657 c -3.177,-0.493 -5.241,-0.568 -6.952,-0.565 -1.447,1.736 -2.976,3.402 -4.597,4.976 -0.017,-1.683 0.167,-3.366 0.534,-5.009 -1.058,-0.07 -2.23,-0.225 -3.718,-0.559 l -4.588,1.345 3.081,-10.857 -30.5,-1.145 c -6.081,3.106 -11.298,7.898 -14.872,13.72 -0.649,-3.737 -1.277,-7.708 0.152,-11.221 1.221,-3.002 3.772,-5.225 6.236,-7.33 1.282,-1.096 2.647,-2.216 4.091,-3.142 l 0.05,-12.826 0.01,-3 0.049,-12.499 c 0.009,-2.485 2.031,-4.493 4.517,-4.483 2.485,0.01 4.492,2.032 4.483,4.517 l -0.049,12.5 1.938,0.007 0.049,-12.499 c 0.008,-2.485 2.031,-4.493 4.516,-4.483 2.486,0.01 4.492,2.032 4.483,4.517 l -0.048,12.5 4.062,0.016 0.049,-12.688 c 0.01,-2.485 2.032,-4.492 4.518,-4.482 2.485,0.009 4.492,2.032 4.482,4.517 l -0.051,13.217 c 0.514,0.189 1.014,0.421 1.497,0.7 l 0.053,-13.536 c 0.009,-2.486 2.031,-4.492 4.517,-4.483 2.485,0.01 4.492,2.032 4.483,4.517 L 0.305,0.091 C 0.425,0.426 0.5,0.649 0.543,0.795 l 6.591,11.198 c 0.898,2.922 0.681,5.769 -0.45,8.664"
             style="fill:#fffbe6;fill-opacity:1;fill-rule:nonzero;stroke:none"
             id="path150" /></g><g
           id="g152"
           transform="translate(104.3974,90.0876)"><path
             d="M 0,0 C 0.187,-0.408 0.668,-0.588 1.076,-0.402 1.484,-0.215 1.665,0.267 1.479,0.675 1.292,1.083 0.81,1.263 0.401,1.077 -0.007,0.89 -0.187,0.408 0,0"
             style="fill:#e8716a;fill-opacity:1;fill-rule:nonzero;stroke:none"
             id="path154" /></g><g
           id="g156"
           transform="translate(109.3271,92.0593)"><path
             d="m 0,0 c -0.093,0 -0.186,0.004 -0.277,0.012 -0.293,0.026 -0.509,0.283 -0.484,0.576 0.027,0.292 0.282,0.51 0.575,0.483 0.939,-0.084 1.879,0.433 2.32,1.251 0.139,0.259 0.464,0.353 0.72,0.215 C 3.112,2.398 3.209,2.076 3.069,1.817 2.478,0.719 1.244,0 0,0"
             style="fill:#2b2c2b;fill-opacity:1;fill-rule:nonzero;stroke:none"
             id="path158" /></g><g
           id="g160"
           transform="translate(107.5781,94.2756)"><path
             d="M 0,0 C 0.113,-0.247 0.405,-0.356 0.652,-0.243 0.899,-0.13 1.009,0.162 0.896,0.409 0.783,0.656 0.491,0.765 0.243,0.652 -0.004,0.539 -0.112,0.247 0,0"
             style="fill:#2b2c2b;fill-opacity:1;fill-rule:nonzero;stroke:none"
             id="path162" /></g><g
           id="g164"
           transform="translate(86.2832,116.6779)"><path
             d="M 0,0 C -0.032,0 -0.059,0.026 -0.059,0.059 V 42.49 c 0,0.032 0.027,0.058 0.059,0.058 0.032,0 0.059,-0.026 0.059,-0.058 V 0.059 C 0.059,0.026 0.032,0 0,0"
             style="fill:#171717;fill-opacity:1;fill-rule:nonzero;stroke:none"
             id="path166" /></g><g
           id="g168"
           transform="translate(224.1513,119.5671)"><path
             d="m 0,0 c -0.038,0 -0.068,0.031 -0.068,0.068 v 62.533 c 0,0.037 0.03,0.068 0.068,0.068 0.038,0 0.068,-0.031 0.068,-0.068 V 0.068 C 0.068,0.031 0.038,0 0,0"
             style="fill:#171717;fill-opacity:1;fill-rule:nonzero;stroke:none"
             id="path170" /></g><g
           id="g172"
           transform="translate(66.6514,41.5993)"><path
             d="m 0,0 h -19.603 c -0.038,0 -0.068,0.031 -0.068,0.068 0,0.038 0.03,0.069 0.068,0.069 H 0 C 0.038,0.137 0.068,0.106 0.068,0.068 0.068,0.031 0.038,0 0,0"
             style="fill:#171717;fill-opacity:1;fill-rule:nonzero;stroke:none"
             id="path174" /></g><g
           id="g176"
           transform="translate(131.6513,59.5993)"><path
             d="m 0,0 h -15.133 c -0.038,0 -0.068,0.031 -0.068,0.068 0,0.038 0.03,0.069 0.068,0.069 H 0 C 0.038,0.137 0.068,0.106 0.068,0.068 0.068,0.031 0.038,0 0,0"
             style="fill:#171717;fill-opacity:1;fill-rule:nonzero;stroke:none"
             id="path178" /></g><g
           id="g180"
           transform="translate(245.6513,41.0993)"><path
             d="m 0,0 h -71.138 c -0.038,0 -0.068,0.031 -0.068,0.068 0,0.038 0.03,0.069 0.068,0.069 H 0 C 0.038,0.137 0.068,0.106 0.068,0.068 0.068,0.031 0.038,0 0,0"
             style="fill:#171717;fill-opacity:1;fill-rule:nonzero;stroke:none"
             id="path182" /></g><g
           id="g184"
           transform="translate(234.1513,91.5993)"><path
             d="m 0,0 h -30.336 c -0.038,0 -0.068,0.031 -0.068,0.068 0,0.038 0.03,0.069 0.068,0.069 H 0 C 0.038,0.137 0.068,0.106 0.068,0.068 0.068,0.031 0.038,0 0,0"
             style="fill:#171717;fill-opacity:1;fill-rule:nonzero;stroke:none"
             id="path186" /></g><g
           id="g188"
           transform="translate(84.1279,212.4406)"><path
             d="m 0,0 c -2.114,0 -4.19,-0.588 -6.03,-1.732 -2.6,-1.617 -4.414,-4.149 -5.11,-7.13 -0.559,-2.402 -0.333,-4.876 0.658,-7.155 0.007,-0.018 0.005,-0.038 -0.004,-0.054 -0.01,-0.017 -0.028,-0.028 -0.046,-0.029 -5.203,-0.395 -9.495,-4.076 -10.682,-9.161 -1.233,-5.293 1.277,-10.739 6.106,-13.245 0.017,-0.009 0.029,-0.026 0.031,-0.046 0.003,-0.019 -0.004,-0.038 -0.019,-0.052 -1.726,-1.546 -2.916,-3.554 -3.441,-5.805 -0.682,-2.924 -0.185,-5.94 1.401,-8.49 1.586,-2.55 4.071,-4.33 6.995,-5.013 4.114,-0.961 8.373,0.451 11.12,3.678 0.013,0.018 0.04,0.025 0.062,0.018 l 0.139,-0.043 c 0.278,-0.086 0.565,-0.175 0.857,-0.243 8.016,-1.873 16.068,3.133 17.941,11.155 1.231,5.282 -0.508,10.829 -4.539,14.477 -0.014,0.013 -0.021,0.033 -0.018,0.053 0.003,0.02 0.016,0.037 0.034,0.045 2.774,1.263 4.762,3.681 5.451,6.634 0.589,2.529 0.159,5.136 -1.213,7.341 -1.371,2.206 -3.518,3.745 -6.047,4.334 -0.695,0.162 -1.432,0.246 -2.19,0.248 -0.03,0 -0.056,0.023 -0.06,0.052 C 10.847,-5.361 7.32,-1.399 2.624,-0.304 1.753,-0.1 0.873,0 0,0 m -7.576,-58.327 c -0.861,0 -1.73,0.098 -2.592,0.299 -6.102,1.424 -9.908,7.545 -8.484,13.646 0.523,2.247 1.703,4.254 3.413,5.81 -4.827,2.548 -7.33,8.02 -6.09,13.339 1.191,5.108 5.487,8.814 10.704,9.245 -0.972,2.281 -1.19,4.753 -0.63,7.153 0.702,3.012 2.535,5.57 5.162,7.204 2.626,1.632 5.73,2.145 8.744,1.444 4.729,-1.104 8.282,-5.082 8.858,-9.91 0.749,-0.005 1.476,-0.09 2.164,-0.25 2.559,-0.597 4.733,-2.154 6.122,-4.387 1.388,-2.232 1.823,-4.871 1.226,-7.431 -0.69,-2.96 -2.669,-5.389 -5.435,-6.678 4.015,-3.677 5.741,-9.236 4.507,-14.532 -1.885,-8.084 -9.996,-13.129 -18.083,-11.243 -0.296,0.069 -0.585,0.159 -0.865,0.245 l -0.102,0.032 c -2.197,-2.566 -5.346,-3.986 -8.619,-3.986"
             style="fill:#171717;fill-opacity:1;fill-rule:nonzero;stroke:none"
             id="path190" /></g><g
           id="g192"
           transform="translate(119.1514,113.6413)"><path
             d="M 0,0 C -0.015,0 -0.026,0.012 -0.026,0.026 V 17.95 c 0,0.654 -0.037,1.336 -0.077,2.057 -0.152,2.811 -0.326,5.997 1.955,7.753 1.173,0.904 2.529,1.056 3.838,1.203 2.161,0.243 4.202,0.472 5.047,4.105 0.542,2.329 -0.224,4.774 -2.001,6.381 -0.007,0.006 -0.009,0.014 -0.008,0.023 10e-4,0.009 0.007,0.016 0.015,0.02 1.224,0.557 2.1,1.624 2.403,2.925 0.26,1.116 0.071,2.265 -0.534,3.237 -0.604,0.972 -1.55,1.651 -2.666,1.911 -0.305,0.071 -0.631,0.108 -0.966,0.109 -0.013,0 -0.024,0.01 -0.026,0.023 -0.243,2.117 -1.798,3.864 -3.868,4.347 -2.716,0.632 -5.435,-1.06 -6.068,-3.773 -0.247,-1.06 -0.147,-2.15 0.29,-3.155 0.003,-0.008 0.002,-0.017 -0.002,-0.024 -0.004,-0.008 -0.012,-0.012 -0.021,-0.013 -2.293,-0.174 -4.185,-1.797 -4.709,-4.038 -0.544,-2.334 0.563,-4.736 2.692,-5.84 0.007,-0.004 0.013,-0.012 0.014,-0.02 0.001,-0.009 -0.002,-0.017 -0.009,-0.023 -0.76,-0.682 -1.285,-1.568 -1.516,-2.56 -0.62,-2.661 1.04,-5.332 3.701,-5.953 1.032,-0.241 2.088,-0.149 3.057,0.264 0.013,0.006 0.028,0 0.035,-0.013 0.006,-0.014 -0.001,-0.029 -0.014,-0.035 -0.981,-0.418 -2.049,-0.509 -3.09,-0.267 -2.689,0.627 -4.367,3.326 -3.74,6.016 0.231,0.991 0.751,1.875 1.504,2.561 -2.128,1.124 -3.231,3.537 -2.685,5.882 0.526,2.252 2.419,3.885 4.72,4.076 -0.429,1.005 -0.524,2.095 -0.278,3.153 0.639,2.742 3.387,4.454 6.131,3.813 2.085,-0.486 3.651,-2.24 3.906,-4.369 0.331,-0.002 0.651,-0.039 0.954,-0.11 1.129,-0.263 2.087,-0.95 2.699,-1.934 0.612,-0.984 0.804,-2.148 0.54,-3.276 -0.304,-1.305 -1.177,-2.376 -2.396,-2.945 1.769,-1.62 2.531,-4.07 1.987,-6.404 C 9.934,29.387 7.876,29.156 5.696,28.911 4.394,28.765 3.046,28.614 1.883,27.718 -0.375,25.979 -0.21,22.945 -0.05,20.01 -0.011,19.288 0.026,18.606 0.026,17.95 V 0.026 C 0.026,0.012 0.015,0 0,0"
             style="fill:#171717;fill-opacity:1;fill-rule:nonzero;stroke:none"
             id="path194" /></g><g
           id="g196"
           transform="translate(211.6504,227.0993)"><path
             d="m 0,0 c -7.682,0 -13.932,-6.25 -13.932,-13.932 0,-4.412 2.036,-8.471 5.587,-11.137 0.028,-0.02 0.035,-0.058 0.019,-0.088 -1.256,-2.252 -1.92,-4.803 -1.92,-7.38 0,-8.371 6.81,-15.182 15.183,-15.182 2.836,0 5.617,0.803 8.04,2.321 0.019,0.012 0.044,0.013 0.064,0.004 2.134,-0.975 4.391,-1.469 6.709,-1.469 8.923,0 16.182,7.259 16.182,16.181 0,5.012 -2.28,9.662 -6.252,12.758 -0.024,0.018 -0.033,0.049 -0.023,0.076 1.781,5.326 0.431,11.091 -3.525,15.048 -1.123,1.123 -2.433,2.057 -3.891,2.776 -0.032,0.016 -0.047,0.054 -0.033,0.087 0.48,1.208 0.725,2.472 0.725,3.755 C 22.933,9.433 18.364,14 12.75,14 7.136,14 2.568,9.433 2.568,3.818 2.568,2.383 2.869,0.985 3.462,-0.337 3.473,-0.361 3.469,-0.389 3.452,-0.409 3.435,-0.429 3.407,-0.438 3.383,-0.431 2.237,-0.145 1.1,0 0,0 m 4.937,-47.855 c -8.448,0 -15.32,6.871 -15.32,15.318 0,2.58 0.659,5.135 1.908,7.394 -3.555,2.693 -5.593,6.775 -5.593,11.211 0,7.758 6.31,14.069 14.068,14.069 1.067,0 2.17,-0.136 3.28,-0.402 -0.563,1.302 -0.848,2.675 -0.848,4.083 0,5.69 4.629,10.319 10.318,10.319 5.69,0 10.319,-4.629 10.319,-10.319 0,-1.279 -0.239,-2.54 -0.711,-3.747 1.449,-0.722 2.751,-1.655 3.871,-2.775 3.981,-3.982 5.348,-9.779 3.573,-15.141 3.983,-3.123 6.266,-7.799 6.266,-12.837 0,-8.998 -7.32,-16.318 -16.318,-16.318 -2.326,0 -4.591,0.493 -6.732,1.466 -2.437,-1.519 -5.231,-2.321 -8.081,-2.321"
             style="fill:#171717;fill-opacity:1;fill-rule:nonzero;stroke:none"
             id="path198" /></g><g
           id="g200"
           transform="translate(127.1514,201.6081)"><path
             d="m 0,0 h -10.689 c -0.034,0 -0.06,0.027 -0.06,0.06 0,0.032 0.026,0.059 0.06,0.059 H 0 C 0.033,0.119 0.06,0.092 0.06,0.06 0.06,0.027 0.033,0 0,0"
             style="fill:#171717;fill-opacity:1;fill-rule:nonzero;stroke:none"
             id="path202" /></g><g
           id="g204"
           transform="translate(118.1514,191.6081)"><path
             d="m 0,0 h -13.583 c -0.033,0 -0.06,0.027 -0.06,0.06 0,0.032 0.027,0.059 0.06,0.059 H 0 C 0.033,0.119 0.06,0.092 0.06,0.06 0.06,0.027 0.033,0 0,0"
             style="fill:#171717;fill-opacity:1;fill-rule:nonzero;stroke:none"
             id="path206" /></g><g
           id="g208"
           transform="translate(63.6513,229.1081)"><path
             d="m 0,0 h -31.321 c -0.033,0 -0.06,0.027 -0.06,0.06 0,0.032 0.027,0.059 0.06,0.059 H 0 C 0.033,0.119 0.06,0.092 0.06,0.06 0.06,0.027 0.033,0 0,0"
             style="fill:#171717;fill-opacity:1;fill-rule:nonzero;stroke:none"
             id="path210" /></g><g
           id="g212"
           transform="translate(54.6513,186.1081)"><path
             d="m 0,0 h -9.553 c -0.033,0 -0.059,0.027 -0.059,0.06 0,0.032 0.026,0.059 0.059,0.059 H 0 C 0.033,0.119 0.06,0.092 0.06,0.06 0.06,0.027 0.033,0 0,0"
             style="fill:#171717;fill-opacity:1;fill-rule:nonzero;stroke:none"
             id="path214" /></g><g
           id="g216"
           transform="translate(113.6484,96.9734)"><path
             d="m 0,0 c -0.644,-0.167 -1.354,-0.053 -1.913,0.307 -0.079,0.05 -0.162,0.116 -0.174,0.21 -0.02,0.159 0.166,0.257 0.318,0.306 0.267,0.086 0.535,0.172 0.801,0.258 0.106,0.034 0.214,0.068 0.324,0.067 0.28,-0.002 0.515,-0.231 0.613,-0.492 0.098,-0.26 0.089,-0.547 0.078,-0.825"
             style="fill:#2b2c2b;fill-opacity:1;fill-rule:nonzero;stroke:none"
             id="path218" /></g><g
           id="g220"
           transform="translate(71.3359,178.2717)"><path
             d="m 0,0 c -0.014,0 -0.026,0.004 -0.038,0.014 -1.383,1.144 -2.419,3.559 -1.616,6.375 0.536,1.881 1.756,3.68 3.84,5.661 0.025,0.023 0.062,0.022 0.084,-0.002 C 2.292,12.024 2.291,11.987 2.268,11.964 0.199,9.998 -1.01,8.216 -1.539,6.357 -2.327,3.592 -1.315,1.225 0.038,0.105 0.063,0.084 0.066,0.047 0.046,0.021 0.034,0.007 0.017,0 0,0"
             style="fill:#171717;fill-opacity:1;fill-rule:nonzero;stroke:none"
             id="path222" /></g><g
           id="g224"
           transform="translate(95.2451,164.3967)"><path
             d="m 0,0 c -0.018,0 -0.035,0.008 -0.047,0.023 -0.02,0.026 -0.015,0.063 0.01,0.083 2.676,2.106 4.215,5.526 4.016,8.926 -0.002,0.033 0.023,0.061 0.055,0.063 h 0.004 c 0.031,0 0.058,-0.024 0.06,-0.056 C 4.299,5.601 2.743,2.143 0.037,0.013 0.026,0.004 0.013,0 0,0"
             style="fill:#171717;fill-opacity:1;fill-rule:nonzero;stroke:none"
             id="path226" /></g><g
           id="g228"
           transform="translate(214.8994,186.7487)"><path
             d="m 0,0 h -0.001 c -3.342,0.053 -6.624,1.608 -8.78,4.16 -0.021,0.026 -0.018,0.063 0.008,0.084 0.023,0.021 0.06,0.019 0.084,-0.007 2.133,-2.526 5.382,-4.066 8.69,-4.118 0.033,0 0.059,-0.028 0.059,-0.06 C 0.059,0.026 0.032,0 0,0"
             style="fill:#171717;fill-opacity:1;fill-rule:nonzero;stroke:none"
             id="path230" /></g><g
           id="g232"
           transform="translate(236.2822,213.1071)"><path
             d="M 0,0 C -0.003,0 -0.005,0 -0.008,0 -0.04,0.005 -0.063,0.035 -0.059,0.067 0.242,2.311 -0.463,4.67 -1.945,6.38 -1.967,6.405 -1.964,6.442 -1.939,6.464 -1.914,6.486 -1.877,6.483 -1.855,6.458 -0.351,4.723 0.365,2.328 0.059,0.052 0.055,0.022 0.029,0 0,0"
             style="fill:#171717;fill-opacity:1;fill-rule:nonzero;stroke:none"
             id="path234" /></g><g
           id="g236"
           transform="translate(118.9014,54.136)"><path
             d="m 0,0 c -2.602,0 -4.719,-2.117 -4.719,-4.718 0,-2.602 2.117,-4.719 4.719,-4.719 2.602,0 4.719,2.117 4.719,4.719 C 4.719,-2.117 2.602,0 0,0 m 0,-10.5 c -3.188,0 -5.781,2.594 -5.781,5.782 0,3.188 2.593,5.781 5.781,5.781 3.188,0 5.781,-2.593 5.781,-5.781 C 5.781,-7.906 3.188,-10.5 0,-10.5"
             style="fill:#2b2c2b;fill-opacity:1;fill-rule:nonzero;stroke:none"
             id="path238" /></g><g
           id="g240"
           transform="translate(114.5693,46.3332)"><path
             d="M 0,0 C -0.139,0 -0.283,0.038 -0.404,0.134 L -0.679,0.35 -0.605,0.741 -0.092,0.605 0.254,0.968 C 0.206,1.006 0.037,1.122 -0.145,1.024 2.396,2.386 4.677,4.93 5.81,7.663 L 6.792,7.256 C 5.568,4.307 3.104,1.56 0.358,0.087 0.261,0.035 0.133,0 0,0"
             style="fill:#2b2c2b;fill-opacity:1;fill-rule:nonzero;stroke:none"
             id="path242" /></g><g
           id="g244"
           transform="translate(120.9746,44.383)"><path
             d="m 0,0 -1.014,0.319 c 0.594,1.886 1.993,3.908 3.837,5.55 L 3.53,5.075 C 1.824,3.557 0.538,1.708 0,0"
             style="fill:#2b2c2b;fill-opacity:1;fill-rule:nonzero;stroke:none"
             id="path246" /></g></g></g></g></svg>
